solid 20mm_XYZ_cube
   facet normal 0.000000e+00 1.000000e+00 0.000000e+00
      outer loop
         vertex 6.346154e+00 2.010000e+01 1.510000e+01
         vertex 9.551282e+00 2.010000e+01 9.853605e+00
         vertex 9.551282e+00 2.010000e+01 5.100000e+00
      endloop
   endfacet
   facet normal 0.000000e+00 1.000000e+00 0.000000e+00
      outer loop
         vertex 2.000000e+01 2.010000e+01 2.010000e+01
         vertex 7.373798e+00 2.010000e+01 1.510000e+01
         vertex 0.000000e+00 2.010000e+01 2.010000e+01
      endloop
   endfacet
   facet normal 0.000000e+00 1.000000e+00 0.000000e+00
      outer loop
         vertex 0.000000e+00 2.010000e+01 2.010000e+01
         vertex 7.373798e+00 2.010000e+01 1.510000e+01
         vertex 6.346154e+00 2.010000e+01 1.510000e+01
      endloop
   endfacet
   facet normal 0.000000e+00 1.000000e+00 0.000000e+00
      outer loop
         vertex 0.000000e+00 2.010000e+01 2.010000e+01
         vertex 6.346154e+00 2.010000e+01 1.510000e+01
         vertex 0.000000e+00 2.010000e+01 9.999983e-02
      endloop
   endfacet
   facet normal 0.000000e+00 1.000000e+00 0.000000e+00
      outer loop
         vertex 0.000000e+00 2.010000e+01 9.999983e-02
         vertex 6.346154e+00 2.010000e+01 1.510000e+01
         vertex 9.551282e+00 2.010000e+01 5.100000e+00
      endloop
   endfacet
   facet normal 0.000000e+00 1.000000e+00 0.000000e+00
      outer loop
         vertex 0.000000e+00 2.010000e+01 9.999983e-02
         vertex 9.551282e+00 2.010000e+01 5.100000e+00
         vertex 2.000000e+01 2.010000e+01 9.999983e-02
      endloop
   endfacet
   facet normal 0.000000e+00 1.000000e+00 0.000000e+00
      outer loop
         vertex 2.000000e+01 2.010000e+01 9.999983e-02
         vertex 9.551282e+00 2.010000e+01 5.100000e+00
         vertex 1.044872e+01 2.010000e+01 5.100000e+00
      endloop
   endfacet
   facet normal 0.000000e+00 1.000000e+00 0.000000e+00
      outer loop
         vertex 1.044872e+01 2.010000e+01 5.100000e+00
         vertex 1.044872e+01 2.010000e+01 9.853605e+00
         vertex 2.000000e+01 2.010000e+01 9.999983e-02
      endloop
   endfacet
   facet normal 0.000000e+00 1.000000e+00 0.000000e+00
      outer loop
         vertex 2.000000e+01 2.010000e+01 9.999983e-02
         vertex 1.044872e+01 2.010000e+01 9.853605e+00
         vertex 1.365385e+01 2.010000e+01 1.510000e+01
      endloop
   endfacet
   facet normal 0.000000e+00 1.000000e+00 -0.000000e+00
      outer loop
         vertex 2.000000e+01 2.010000e+01 9.999983e-02
         vertex 1.365385e+01 2.010000e+01 1.510000e+01
         vertex 2.000000e+01 2.010000e+01 2.010000e+01
      endloop
   endfacet
   facet normal 0.000000e+00 1.000000e+00 0.000000e+00
      outer loop
         vertex 2.000000e+01 2.010000e+01 2.010000e+01
         vertex 1.365385e+01 2.010000e+01 1.510000e+01
         vertex 1.262620e+01 2.010000e+01 1.510000e+01
      endloop
   endfacet
   facet normal 0.000000e+00 1.000000e+00 0.000000e+00
      outer loop
         vertex 2.000000e+01 2.010000e+01 2.010000e+01
         vertex 1.262620e+01 2.010000e+01 1.510000e+01
         vertex 7.373798e+00 2.010000e+01 1.510000e+01
      endloop
   endfacet
   facet normal 0.000000e+00 1.000000e+00 0.000000e+00
      outer loop
         vertex 7.373798e+00 2.010000e+01 1.510000e+01
         vertex 1.262620e+01 2.010000e+01 1.510000e+01
         vertex 9.997997e+00 2.010000e+01 1.080312e+01
      endloop
   endfacet
   facet normal 1.000000e+00 0.000000e+00 0.000000e+00
      outer loop
         vertex 2.000000e+01 6.317948e+00 5.100000e+00
         vertex 2.000000e+01 9.583173e+00 1.020016e+01
         vertex 2.000000e+01 6.446153e+00 1.510000e+01
      endloop
   endfacet
   facet normal 1.000000e+00 0.000000e+00 0.000000e+00
      outer loop
         vertex 2.000000e+01 1.271819e+01 1.510000e+01
         vertex 2.000000e+01 1.375385e+01 1.510000e+01
         vertex 2.000000e+01 2.010000e+01 2.010000e+01
      endloop
   endfacet
   facet normal 1.000000e+00 0.000000e+00 0.000000e+00
      outer loop
         vertex 2.000000e+01 1.388205e+01 5.100000e+00
         vertex 2.000000e+01 1.284639e+01 5.100000e+00
         vertex 2.000000e+01 9.999983e-02 9.999983e-02
      endloop
   endfacet
   facet normal 1.000000e+00 0.000000e+00 0.000000e+00
      outer loop
         vertex 2.000000e+01 1.375385e+01 1.510000e+01
         vertex 2.000000e+01 1.061883e+01 1.020016e+01
         vertex 2.000000e+01 2.010000e+01 2.010000e+01
      endloop
   endfacet
   facet normal 1.000000e+00 0.000000e+00 0.000000e+00
      outer loop
         vertex 2.000000e+01 2.010000e+01 2.010000e+01
         vertex 2.000000e+01 1.061883e+01 1.020016e+01
         vertex 2.000000e+01 1.388205e+01 5.100000e+00
      endloop
   endfacet
   facet normal 1.000000e+00 0.000000e+00 0.000000e+00
      outer loop
         vertex 2.000000e+01 2.010000e+01 2.010000e+01
         vertex 2.000000e+01 1.388205e+01 5.100000e+00
         vertex 2.000000e+01 2.010000e+01 9.999983e-02
      endloop
   endfacet
   facet normal 1.000000e+00 0.000000e+00 0.000000e+00
      outer loop
         vertex 2.000000e+01 2.010000e+01 9.999983e-02
         vertex 2.000000e+01 1.388205e+01 5.100000e+00
         vertex 2.000000e+01 9.999983e-02 9.999983e-02
      endloop
   endfacet
   facet normal 1.000000e+00 0.000000e+00 -0.000000e+00
      outer loop
         vertex 2.000000e+01 1.010000e+01 1.100945e+01
         vertex 2.000000e+01 1.271819e+01 1.510000e+01
         vertex 2.000000e+01 7.481810e+00 1.510000e+01
      endloop
   endfacet
   facet normal 1.000000e+00 0.000000e+00 0.000000e+00
      outer loop
         vertex 2.000000e+01 7.481810e+00 1.510000e+01
         vertex 2.000000e+01 1.271819e+01 1.510000e+01
         vertex 2.000000e+01 2.010000e+01 2.010000e+01
      endloop
   endfacet
   facet normal 1.000000e+00 0.000000e+00 -0.000000e+00
      outer loop
         vertex 2.000000e+01 7.481810e+00 1.510000e+01
         vertex 2.000000e+01 2.010000e+01 2.010000e+01
         vertex 2.000000e+01 6.446153e+00 1.510000e+01
      endloop
   endfacet
   facet normal 1.000000e+00 0.000000e+00 -0.000000e+00
      outer loop
         vertex 2.000000e+01 6.446153e+00 1.510000e+01
         vertex 2.000000e+01 2.010000e+01 2.010000e+01
         vertex 2.000000e+01 9.999983e-02 2.010000e+01
      endloop
   endfacet
   facet normal 1.000000e+00 0.000000e+00 0.000000e+00
      outer loop
         vertex 2.000000e+01 6.446153e+00 1.510000e+01
         vertex 2.000000e+01 9.999983e-02 2.010000e+01
         vertex 2.000000e+01 6.317948e+00 5.100000e+00
      endloop
   endfacet
   facet normal 1.000000e+00 0.000000e+00 0.000000e+00
      outer loop
         vertex 2.000000e+01 6.317948e+00 5.100000e+00
         vertex 2.000000e+01 9.999983e-02 2.010000e+01
         vertex 2.000000e+01 9.999983e-02 9.999983e-02
      endloop
   endfacet
   facet normal 1.000000e+00 0.000000e+00 0.000000e+00
      outer loop
         vertex 2.000000e+01 6.317948e+00 5.100000e+00
         vertex 2.000000e+01 9.999983e-02 9.999983e-02
         vertex 2.000000e+01 7.353605e+00 5.100000e+00
      endloop
   endfacet
   facet normal 1.000000e+00 0.000000e+00 0.000000e+00
      outer loop
         vertex 2.000000e+01 7.353605e+00 5.100000e+00
         vertex 2.000000e+01 9.999983e-02 9.999983e-02
         vertex 2.000000e+01 1.284639e+01 5.100000e+00
      endloop
   endfacet
   facet normal 1.000000e+00 0.000000e+00 0.000000e+00
      outer loop
         vertex 2.000000e+01 7.353605e+00 5.100000e+00
         vertex 2.000000e+01 1.284639e+01 5.100000e+00
         vertex 2.000000e+01 1.010000e+01 9.390865e+00
      endloop
   endfacet
   facet normal 0.000000e+00 0.000000e+00 1.000000e+00
      outer loop
         vertex 7.435897e+00 6.125641e+00 2.010000e+01
         vertex 1.124599e+01 6.125641e+00 2.010000e+01
         vertex 7.051282e+00 1.510000e+01 2.010000e+01
      endloop
   endfacet
   facet normal 0.000000e+00 0.000000e+00 1.000000e+00
      outer loop
         vertex 2.000000e+01 9.999983e-02 2.010000e+01
         vertex 1.269231e+01 5.100000e+00 2.010000e+01
         vertex 0.000000e+00 9.999983e-02 2.010000e+01
      endloop
   endfacet
   facet normal 0.000000e+00 0.000000e+00 1.000000e+00
      outer loop
         vertex 0.000000e+00 9.999983e-02 2.010000e+01
         vertex 1.269231e+01 5.100000e+00 2.010000e+01
         vertex 7.435897e+00 5.100000e+00 2.010000e+01
      endloop
   endfacet
   facet normal 0.000000e+00 0.000000e+00 1.000000e+00
      outer loop
         vertex 0.000000e+00 9.999983e-02 2.010000e+01
         vertex 7.435897e+00 5.100000e+00 2.010000e+01
         vertex 0.000000e+00 2.010000e+01 2.010000e+01
      endloop
   endfacet
   facet normal 0.000000e+00 0.000000e+00 1.000000e+00
      outer loop
         vertex 8.497596e+00 1.407436e+01 2.010000e+01
         vertex 1.269231e+01 5.100000e+00 2.010000e+01
         vertex 1.256410e+01 1.407436e+01 2.010000e+01
      endloop
   endfacet
   facet normal 0.000000e+00 0.000000e+00 1.000000e+00
      outer loop
         vertex 1.256410e+01 1.407436e+01 2.010000e+01
         vertex 1.269231e+01 5.100000e+00 2.010000e+01
         vertex 2.000000e+01 9.999983e-02 2.010000e+01
      endloop
   endfacet
   facet normal 0.000000e+00 0.000000e+00 1.000000e+00
      outer loop
         vertex 1.256410e+01 1.407436e+01 2.010000e+01
         vertex 2.000000e+01 9.999983e-02 2.010000e+01
         vertex 1.256410e+01 1.510000e+01 2.010000e+01
      endloop
   endfacet
   facet normal 0.000000e+00 0.000000e+00 1.000000e+00
      outer loop
         vertex 1.256410e+01 1.510000e+01 2.010000e+01
         vertex 2.000000e+01 9.999983e-02 2.010000e+01
         vertex 2.000000e+01 2.010000e+01 2.010000e+01
      endloop
   endfacet
   facet normal 0.000000e+00 0.000000e+00 1.000000e+00
      outer loop
         vertex 1.256410e+01 1.510000e+01 2.010000e+01
         vertex 2.000000e+01 2.010000e+01 2.010000e+01
         vertex 7.051282e+00 1.510000e+01 2.010000e+01
      endloop
   endfacet
   facet normal 0.000000e+00 0.000000e+00 1.000000e+00
      outer loop
         vertex 7.051282e+00 1.510000e+01 2.010000e+01
         vertex 2.000000e+01 2.010000e+01 2.010000e+01
         vertex 0.000000e+00 2.010000e+01 2.010000e+01
      endloop
   endfacet
   facet normal 0.000000e+00 0.000000e+00 1.000000e+00
      outer loop
         vertex 7.051282e+00 1.510000e+01 2.010000e+01
         vertex 0.000000e+00 2.010000e+01 2.010000e+01
         vertex 7.435897e+00 6.125641e+00 2.010000e+01
      endloop
   endfacet
   facet normal 0.000000e+00 0.000000e+00 1.000000e+00
      outer loop
         vertex 7.435897e+00 6.125641e+00 2.010000e+01
         vertex 0.000000e+00 2.010000e+01 2.010000e+01
         vertex 7.435897e+00 5.100000e+00 2.010000e+01
      endloop
   endfacet
   facet normal 0.000000e+00 -1.000000e+00 0.000000e+00
      outer loop
         vertex 2.000000e+01 9.999983e-02 9.999983e-02
         vertex 2.000000e+01 9.999983e-02 2.010000e+01
         vertex 0.000000e+00 9.999983e-02 9.999983e-02
      endloop
   endfacet
   facet normal 0.000000e+00 -1.000000e+00 0.000000e+00
      outer loop
         vertex 0.000000e+00 9.999983e-02 9.999983e-02
         vertex 2.000000e+01 9.999983e-02 2.010000e+01
         vertex 0.000000e+00 9.999983e-02 2.010000e+01
      endloop
   endfacet
   facet normal -0.000000e+00 0.000000e+00 -1.000000e+00
      outer loop
         vertex 2.000000e+01 2.010000e+01 9.999983e-02
         vertex 2.000000e+01 9.999983e-02 9.999983e-02
         vertex 0.000000e+00 2.010000e+01 9.999983e-02
      endloop
   endfacet
   facet normal 0.000000e+00 0.000000e+00 -1.000000e+00
      outer loop
         vertex 0.000000e+00 2.010000e+01 9.999983e-02
         vertex 2.000000e+01 9.999983e-02 9.999983e-02
         vertex 0.000000e+00 9.999983e-02 9.999983e-02
      endloop
   endfacet
   facet normal -1.000000e+00 0.000000e+00 0.000000e+00
      outer loop
         vertex 0.000000e+00 9.999983e-02 9.999983e-02
         vertex 0.000000e+00 9.999983e-02 2.010000e+01
         vertex 0.000000e+00 2.010000e+01 9.999983e-02
      endloop
   endfacet
   facet normal -1.000000e+00 0.000000e+00 0.000000e+00
      outer loop
         vertex 0.000000e+00 2.010000e+01 9.999983e-02
         vertex 0.000000e+00 9.999983e-02 2.010000e+01
         vertex 0.000000e+00 2.010000e+01 2.010000e+01
      endloop
   endfacet
   facet normal 0.000000e+00 8.421838e-01 5.391905e-01
      outer loop
         vertex 1.900000e+01 9.583173e+00 1.020016e+01
         vertex 1.900000e+01 6.446153e+00 1.510000e+01
         vertex 2.000000e+01 9.583173e+00 1.020016e+01
      endloop
   endfacet
   facet normal 0.000000e+00 8.421838e-01 5.391905e-01
      outer loop
         vertex 2.000000e+01 9.583173e+00 1.020016e+01
         vertex 1.900000e+01 6.446153e+00 1.510000e+01
         vertex 2.000000e+01 6.446153e+00 1.510000e+01
      endloop
   endfacet
   facet normal 0.000000e+00 0.000000e+00 -1.000000e+00
      outer loop
         vertex 1.900000e+01 6.446153e+00 1.510000e+01
         vertex 1.900000e+01 7.481810e+00 1.510000e+01
         vertex 2.000000e+01 6.446153e+00 1.510000e+01
      endloop
   endfacet
   facet normal 0.000000e+00 0.000000e+00 -1.000000e+00
      outer loop
         vertex 2.000000e+01 6.446153e+00 1.510000e+01
         vertex 1.900000e+01 7.481810e+00 1.510000e+01
         vertex 2.000000e+01 7.481810e+00 1.510000e+01
      endloop
   endfacet
   facet normal 0.000000e+00 -8.422489e-01 -5.390888e-01
      outer loop
         vertex 1.900000e+01 7.481810e+00 1.510000e+01
         vertex 1.900000e+01 1.010000e+01 1.100945e+01
         vertex 2.000000e+01 7.481810e+00 1.510000e+01
      endloop
   endfacet
   facet normal 0.000000e+00 -8.422489e-01 -5.390888e-01
      outer loop
         vertex 2.000000e+01 7.481810e+00 1.510000e+01
         vertex 1.900000e+01 1.010000e+01 1.100945e+01
         vertex 2.000000e+01 1.010000e+01 1.100945e+01
      endloop
   endfacet
   facet normal 0.000000e+00 8.422489e-01 -5.390888e-01
      outer loop
         vertex 1.900000e+01 1.010000e+01 1.100945e+01
         vertex 1.900000e+01 1.271819e+01 1.510000e+01
         vertex 2.000000e+01 1.010000e+01 1.100945e+01
      endloop
   endfacet
   facet normal 0.000000e+00 8.422489e-01 -5.390888e-01
      outer loop
         vertex 2.000000e+01 1.010000e+01 1.100945e+01
         vertex 1.900000e+01 1.271819e+01 1.510000e+01
         vertex 2.000000e+01 1.271819e+01 1.510000e+01
      endloop
   endfacet
   facet normal 0.000000e+00 0.000000e+00 -1.000000e+00
      outer loop
         vertex 1.900000e+01 1.271819e+01 1.510000e+01
         vertex 1.900000e+01 1.375385e+01 1.510000e+01
         vertex 2.000000e+01 1.271819e+01 1.510000e+01
      endloop
   endfacet
   facet normal 0.000000e+00 0.000000e+00 -1.000000e+00
      outer loop
         vertex 2.000000e+01 1.271819e+01 1.510000e+01
         vertex 1.900000e+01 1.375385e+01 1.510000e+01
         vertex 2.000000e+01 1.375385e+01 1.510000e+01
      endloop
   endfacet
   facet normal 0.000000e+00 -8.423402e-01 5.389462e-01
      outer loop
         vertex 1.900000e+01 1.375385e+01 1.510000e+01
         vertex 1.900000e+01 1.061883e+01 1.020016e+01
         vertex 2.000000e+01 1.375385e+01 1.510000e+01
      endloop
   endfacet
   facet normal 0.000000e+00 -8.423402e-01 5.389462e-01
      outer loop
         vertex 2.000000e+01 1.375385e+01 1.510000e+01
         vertex 1.900000e+01 1.061883e+01 1.020016e+01
         vertex 2.000000e+01 1.061883e+01 1.020016e+01
      endloop
   endfacet
   facet normal 0.000000e+00 -8.423375e-01 -5.389504e-01
      outer loop
         vertex 1.900000e+01 1.061883e+01 1.020016e+01
         vertex 1.900000e+01 1.388205e+01 5.100000e+00
         vertex 2.000000e+01 1.061883e+01 1.020016e+01
      endloop
   endfacet
   facet normal 0.000000e+00 -8.423375e-01 -5.389504e-01
      outer loop
         vertex 2.000000e+01 1.061883e+01 1.020016e+01
         vertex 1.900000e+01 1.388205e+01 5.100000e+00
         vertex 2.000000e+01 1.388205e+01 5.100000e+00
      endloop
   endfacet
   facet normal 0.000000e+00 0.000000e+00 1.000000e+00
      outer loop
         vertex 1.900000e+01 1.388205e+01 5.100000e+00
         vertex 1.900000e+01 1.284639e+01 5.100000e+00
         vertex 2.000000e+01 1.388205e+01 5.100000e+00
      endloop
   endfacet
   facet normal 0.000000e+00 0.000000e+00 1.000000e+00
      outer loop
         vertex 2.000000e+01 1.388205e+01 5.100000e+00
         vertex 1.900000e+01 1.284639e+01 5.100000e+00
         vertex 2.000000e+01 1.284639e+01 5.100000e+00
      endloop
   endfacet
   facet normal 0.000000e+00 8.422500e-01 5.390872e-01
      outer loop
         vertex 1.900000e+01 1.284639e+01 5.100000e+00
         vertex 1.900000e+01 1.010000e+01 9.390865e+00
         vertex 2.000000e+01 1.284639e+01 5.100000e+00
      endloop
   endfacet
   facet normal 0.000000e+00 8.422500e-01 5.390872e-01
      outer loop
         vertex 2.000000e+01 1.284639e+01 5.100000e+00
         vertex 1.900000e+01 1.010000e+01 9.390865e+00
         vertex 2.000000e+01 1.010000e+01 9.390865e+00
      endloop
   endfacet
   facet normal 0.000000e+00 -8.422500e-01 5.390872e-01
      outer loop
         vertex 1.900000e+01 1.010000e+01 9.390865e+00
         vertex 1.900000e+01 7.353605e+00 5.100000e+00
         vertex 2.000000e+01 1.010000e+01 9.390865e+00
      endloop
   endfacet
   facet normal 0.000000e+00 -8.422500e-01 5.390872e-01
      outer loop
         vertex 2.000000e+01 1.010000e+01 9.390865e+00
         vertex 1.900000e+01 7.353605e+00 5.100000e+00
         vertex 2.000000e+01 7.353605e+00 5.100000e+00
      endloop
   endfacet
   facet normal 0.000000e+00 0.000000e+00 1.000000e+00
      outer loop
         vertex 1.900000e+01 7.353605e+00 5.100000e+00
         vertex 1.900000e+01 6.317948e+00 5.100000e+00
         vertex 2.000000e+01 7.353605e+00 5.100000e+00
      endloop
   endfacet
   facet normal 0.000000e+00 0.000000e+00 1.000000e+00
      outer loop
         vertex 2.000000e+01 7.353605e+00 5.100000e+00
         vertex 1.900000e+01 6.317948e+00 5.100000e+00
         vertex 2.000000e+01 6.317948e+00 5.100000e+00
      endloop
   endfacet
   facet normal 0.000000e+00 8.421873e-01 -5.391851e-01
      outer loop
         vertex 1.900000e+01 6.317948e+00 5.100000e+00
         vertex 1.900000e+01 9.583173e+00 1.020016e+01
         vertex 2.000000e+01 6.317948e+00 5.100000e+00
      endloop
   endfacet
   facet normal 0.000000e+00 8.421873e-01 -5.391851e-01
      outer loop
         vertex 2.000000e+01 6.317948e+00 5.100000e+00
         vertex 1.900000e+01 9.583173e+00 1.020016e+01
         vertex 2.000000e+01 9.583173e+00 1.020016e+01
      endloop
   endfacet
   facet normal 1.000000e+00 0.000000e+00 0.000000e+00
      outer loop
         vertex 1.900000e+01 7.481810e+00 1.510000e+01
         vertex 1.900000e+01 6.446153e+00 1.510000e+01
         vertex 1.900000e+01 1.010000e+01 1.100945e+01
      endloop
   endfacet
   facet normal 1.000000e+00 0.000000e+00 0.000000e+00
      outer loop
         vertex 1.900000e+01 1.010000e+01 1.100945e+01
         vertex 1.900000e+01 6.446153e+00 1.510000e+01
         vertex 1.900000e+01 9.583173e+00 1.020016e+01
      endloop
   endfacet
   facet normal 1.000000e+00 0.000000e+00 -0.000000e+00
      outer loop
         vertex 1.900000e+01 1.284639e+01 5.100000e+00
         vertex 1.900000e+01 1.388205e+01 5.100000e+00
         vertex 1.900000e+01 1.010000e+01 9.390865e+00
      endloop
   endfacet
   facet normal 1.000000e+00 0.000000e+00 0.000000e+00
      outer loop
         vertex 1.900000e+01 1.010000e+01 9.390865e+00
         vertex 1.900000e+01 1.388205e+01 5.100000e+00
         vertex 1.900000e+01 1.061883e+01 1.020016e+01
      endloop
   endfacet
   facet normal 1.000000e+00 0.000000e+00 0.000000e+00
      outer loop
         vertex 1.900000e+01 1.375385e+01 1.510000e+01
         vertex 1.900000e+01 1.271819e+01 1.510000e+01
         vertex 1.900000e+01 1.061883e+01 1.020016e+01
      endloop
   endfacet
   facet normal 1.000000e+00 0.000000e+00 -0.000000e+00
      outer loop
         vertex 1.900000e+01 1.061883e+01 1.020016e+01
         vertex 1.900000e+01 1.271819e+01 1.510000e+01
         vertex 1.900000e+01 1.010000e+01 1.100945e+01
      endloop
   endfacet
   facet normal 1.000000e+00 0.000000e+00 0.000000e+00
      outer loop
         vertex 1.900000e+01 1.061883e+01 1.020016e+01
         vertex 1.900000e+01 1.010000e+01 1.100945e+01
         vertex 1.900000e+01 1.010000e+01 9.390865e+00
      endloop
   endfacet
   facet normal 1.000000e+00 0.000000e+00 -0.000000e+00
      outer loop
         vertex 1.900000e+01 1.010000e+01 9.390865e+00
         vertex 1.900000e+01 1.010000e+01 1.100945e+01
         vertex 1.900000e+01 9.583173e+00 1.020016e+01
      endloop
   endfacet
   facet normal 1.000000e+00 0.000000e+00 0.000000e+00
      outer loop
         vertex 1.900000e+01 1.010000e+01 9.390865e+00
         vertex 1.900000e+01 9.583173e+00 1.020016e+01
         vertex 1.900000e+01 7.353605e+00 5.100000e+00
      endloop
   endfacet
   facet normal 1.000000e+00 0.000000e+00 -0.000000e+00
      outer loop
         vertex 1.900000e+01 7.353605e+00 5.100000e+00
         vertex 1.900000e+01 9.583173e+00 1.020016e+01
         vertex 1.900000e+01 6.317948e+00 5.100000e+00
      endloop
   endfacet
   facet normal -8.533543e-01 0.000000e+00 5.213315e-01
      outer loop
         vertex 1.044872e+01 1.910000e+01 9.853605e+00
         vertex 1.365385e+01 1.910000e+01 1.510000e+01
         vertex 1.044872e+01 2.010000e+01 9.853605e+00
      endloop
   endfacet
   facet normal -8.533543e-01 0.000000e+00 5.213315e-01
      outer loop
         vertex 1.044872e+01 2.010000e+01 9.853605e+00
         vertex 1.365385e+01 1.910000e+01 1.510000e+01
         vertex 1.365385e+01 2.010000e+01 1.510000e+01
      endloop
   endfacet
   facet normal 0.000000e+00 0.000000e+00 -1.000000e+00
      outer loop
         vertex 1.365385e+01 1.910000e+01 1.510000e+01
         vertex 1.262620e+01 1.910000e+01 1.510000e+01
         vertex 1.365385e+01 2.010000e+01 1.510000e+01
      endloop
   endfacet
   facet normal 0.000000e+00 0.000000e+00 -1.000000e+00
      outer loop
         vertex 1.365385e+01 2.010000e+01 1.510000e+01
         vertex 1.262620e+01 1.910000e+01 1.510000e+01
         vertex 1.262620e+01 2.010000e+01 1.510000e+01
      endloop
   endfacet
   facet normal 8.530753e-01 0.000000e+00 -5.217878e-01
      outer loop
         vertex 1.262620e+01 1.910000e+01 1.510000e+01
         vertex 9.997997e+00 1.910000e+01 1.080312e+01
         vertex 1.262620e+01 2.010000e+01 1.510000e+01
      endloop
   endfacet
   facet normal 8.530753e-01 0.000000e+00 -5.217878e-01
      outer loop
         vertex 1.262620e+01 2.010000e+01 1.510000e+01
         vertex 9.997997e+00 1.910000e+01 1.080312e+01
         vertex 9.997997e+00 2.010000e+01 1.080312e+01
      endloop
   endfacet
   facet normal -8.534294e-01 0.000000e+00 -5.212085e-01
      outer loop
         vertex 9.997997e+00 1.910000e+01 1.080312e+01
         vertex 7.373798e+00 1.910000e+01 1.510000e+01
         vertex 9.997997e+00 2.010000e+01 1.080312e+01
      endloop
   endfacet
   facet normal -8.534294e-01 0.000000e+00 -5.212085e-01
      outer loop
         vertex 9.997997e+00 2.010000e+01 1.080312e+01
         vertex 7.373798e+00 1.910000e+01 1.510000e+01
         vertex 7.373798e+00 2.010000e+01 1.510000e+01
      endloop
   endfacet
   facet normal 0.000000e+00 0.000000e+00 -1.000000e+00
      outer loop
         vertex 7.373798e+00 1.910000e+01 1.510000e+01
         vertex 6.346154e+00 1.910000e+01 1.510000e+01
         vertex 7.373798e+00 2.010000e+01 1.510000e+01
      endloop
   endfacet
   facet normal 0.000000e+00 0.000000e+00 -1.000000e+00
      outer loop
         vertex 7.373798e+00 2.010000e+01 1.510000e+01
         vertex 6.346154e+00 1.910000e+01 1.510000e+01
         vertex 6.346154e+00 2.010000e+01 1.510000e+01
      endloop
   endfacet
   facet normal 8.533543e-01 0.000000e+00 5.213314e-01
      outer loop
         vertex 6.346154e+00 1.910000e+01 1.510000e+01
         vertex 9.551282e+00 1.910000e+01 9.853605e+00
         vertex 6.346154e+00 2.010000e+01 1.510000e+01
      endloop
   endfacet
   facet normal 8.533543e-01 0.000000e+00 5.213314e-01
      outer loop
         vertex 6.346154e+00 2.010000e+01 1.510000e+01
         vertex 9.551282e+00 1.910000e+01 9.853605e+00
         vertex 9.551282e+00 2.010000e+01 9.853605e+00
      endloop
   endfacet
   facet normal 1.000000e+00 0.000000e+00 0.000000e+00
      outer loop
         vertex 9.551282e+00 1.910000e+01 9.853605e+00
         vertex 9.551282e+00 1.910000e+01 5.100000e+00
         vertex 9.551282e+00 2.010000e+01 9.853605e+00
      endloop
   endfacet
   facet normal 1.000000e+00 0.000000e+00 0.000000e+00
      outer loop
         vertex 9.551282e+00 2.010000e+01 9.853605e+00
         vertex 9.551282e+00 1.910000e+01 5.100000e+00
         vertex 9.551282e+00 2.010000e+01 5.100000e+00
      endloop
   endfacet
   facet normal 0.000000e+00 0.000000e+00 1.000000e+00
      outer loop
         vertex 9.551282e+00 1.910000e+01 5.100000e+00
         vertex 1.044872e+01 1.910000e+01 5.100000e+00
         vertex 9.551282e+00 2.010000e+01 5.100000e+00
      endloop
   endfacet
   facet normal 0.000000e+00 0.000000e+00 1.000000e+00
      outer loop
         vertex 9.551282e+00 2.010000e+01 5.100000e+00
         vertex 1.044872e+01 1.910000e+01 5.100000e+00
         vertex 1.044872e+01 2.010000e+01 5.100000e+00
      endloop
   endfacet
   facet normal -1.000000e+00 0.000000e+00 0.000000e+00
      outer loop
         vertex 1.044872e+01 1.910000e+01 5.100000e+00
         vertex 1.044872e+01 1.910000e+01 9.853605e+00
         vertex 1.044872e+01 2.010000e+01 5.100000e+00
      endloop
   endfacet
   facet normal -1.000000e+00 0.000000e+00 0.000000e+00
      outer loop
         vertex 1.044872e+01 2.010000e+01 5.100000e+00
         vertex 1.044872e+01 1.910000e+01 9.853605e+00
         vertex 1.044872e+01 2.010000e+01 9.853605e+00
      endloop
   endfacet
   facet normal 0.000000e+00 1.000000e+00 0.000000e+00
      outer loop
         vertex 1.262620e+01 1.910000e+01 1.510000e+01
         vertex 1.365385e+01 1.910000e+01 1.510000e+01
         vertex 9.997997e+00 1.910000e+01 1.080312e+01
      endloop
   endfacet
   facet normal 0.000000e+00 1.000000e+00 0.000000e+00
      outer loop
         vertex 9.997997e+00 1.910000e+01 1.080312e+01
         vertex 1.365385e+01 1.910000e+01 1.510000e+01
         vertex 1.044872e+01 1.910000e+01 9.853605e+00
      endloop
   endfacet
   facet normal 0.000000e+00 1.000000e+00 0.000000e+00
      outer loop
         vertex 6.346154e+00 1.910000e+01 1.510000e+01
         vertex 7.373798e+00 1.910000e+01 1.510000e+01
         vertex 9.551282e+00 1.910000e+01 9.853605e+00
      endloop
   endfacet
   facet normal 0.000000e+00 1.000000e+00 -0.000000e+00
      outer loop
         vertex 9.551282e+00 1.910000e+01 9.853605e+00
         vertex 7.373798e+00 1.910000e+01 1.510000e+01
         vertex 9.997997e+00 1.910000e+01 1.080312e+01
      endloop
   endfacet
   facet normal 0.000000e+00 1.000000e+00 0.000000e+00
      outer loop
         vertex 9.551282e+00 1.910000e+01 9.853605e+00
         vertex 9.997997e+00 1.910000e+01 1.080312e+01
         vertex 9.551282e+00 1.910000e+01 5.100000e+00
      endloop
   endfacet
   facet normal 0.000000e+00 1.000000e+00 0.000000e+00
      outer loop
         vertex 9.551282e+00 1.910000e+01 5.100000e+00
         vertex 9.997997e+00 1.910000e+01 1.080312e+01
         vertex 1.044872e+01 1.910000e+01 9.853605e+00
      endloop
   endfacet
   facet normal 0.000000e+00 1.000000e+00 0.000000e+00
      outer loop
         vertex 9.551282e+00 1.910000e+01 5.100000e+00
         vertex 1.044872e+01 1.910000e+01 9.853605e+00
         vertex 1.044872e+01 1.910000e+01 5.100000e+00
      endloop
   endfacet
   facet normal 0.000000e+00 -1.000000e+00 0.000000e+00
      outer loop
         vertex 7.435897e+00 6.125641e+00 1.910000e+01
         vertex 1.124599e+01 6.125641e+00 1.910000e+01
         vertex 7.435897e+00 6.125641e+00 2.010000e+01
      endloop
   endfacet
   facet normal 0.000000e+00 -1.000000e+00 0.000000e+00
      outer loop
         vertex 7.435897e+00 6.125641e+00 2.010000e+01
         vertex 1.124599e+01 6.125641e+00 1.910000e+01
         vertex 1.124599e+01 6.125641e+00 2.010000e+01
      endloop
   endfacet
   facet normal 9.059247e-01 4.234389e-01 -0.000000e+00
      outer loop
         vertex 1.124599e+01 6.125641e+00 1.910000e+01
         vertex 7.051282e+00 1.510000e+01 1.910000e+01
         vertex 1.124599e+01 6.125641e+00 2.010000e+01
      endloop
   endfacet
   facet normal 9.059247e-01 4.234389e-01 0.000000e+00
      outer loop
         vertex 1.124599e+01 6.125641e+00 2.010000e+01
         vertex 7.051282e+00 1.510000e+01 1.910000e+01
         vertex 7.051282e+00 1.510000e+01 2.010000e+01
      endloop
   endfacet
   facet normal 0.000000e+00 -1.000000e+00 0.000000e+00
      outer loop
         vertex 7.051282e+00 1.510000e+01 1.910000e+01
         vertex 1.256410e+01 1.510000e+01 1.910000e+01
         vertex 7.051282e+00 1.510000e+01 2.010000e+01
      endloop
   endfacet
   facet normal 0.000000e+00 -1.000000e+00 0.000000e+00
      outer loop
         vertex 7.051282e+00 1.510000e+01 2.010000e+01
         vertex 1.256410e+01 1.510000e+01 1.910000e+01
         vertex 1.256410e+01 1.510000e+01 2.010000e+01
      endloop
   endfacet
   facet normal -1.000000e+00 0.000000e+00 0.000000e+00
      outer loop
         vertex 1.256410e+01 1.510000e+01 1.910000e+01
         vertex 1.256410e+01 1.407436e+01 1.910000e+01
         vertex 1.256410e+01 1.510000e+01 2.010000e+01
      endloop
   endfacet
   facet normal -1.000000e+00 0.000000e+00 0.000000e+00
      outer loop
         vertex 1.256410e+01 1.510000e+01 2.010000e+01
         vertex 1.256410e+01 1.407436e+01 1.910000e+01
         vertex 1.256410e+01 1.407436e+01 2.010000e+01
      endloop
   endfacet
   facet normal 0.000000e+00 1.000000e+00 -0.000000e+00
      outer loop
         vertex 1.256410e+01 1.407436e+01 1.910000e+01
         vertex 8.497596e+00 1.407436e+01 1.910000e+01
         vertex 1.256410e+01 1.407436e+01 2.010000e+01
      endloop
   endfacet
   facet normal 0.000000e+00 1.000000e+00 0.000000e+00
      outer loop
         vertex 1.256410e+01 1.407436e+01 2.010000e+01
         vertex 8.497596e+00 1.407436e+01 1.910000e+01
         vertex 8.497596e+00 1.407436e+01 2.010000e+01
      endloop
   endfacet
   facet normal -9.059246e-01 -4.234390e-01 0.000000e+00
      outer loop
         vertex 8.497596e+00 1.407436e+01 1.910000e+01
         vertex 1.269231e+01 5.100000e+00 1.910000e+01
         vertex 8.497596e+00 1.407436e+01 2.010000e+01
      endloop
   endfacet
   facet normal -9.059246e-01 -4.234390e-01 0.000000e+00
      outer loop
         vertex 8.497596e+00 1.407436e+01 2.010000e+01
         vertex 1.269231e+01 5.100000e+00 1.910000e+01
         vertex 1.269231e+01 5.100000e+00 2.010000e+01
      endloop
   endfacet
   facet normal 0.000000e+00 1.000000e+00 -0.000000e+00
      outer loop
         vertex 1.269231e+01 5.100000e+00 1.910000e+01
         vertex 7.435897e+00 5.100000e+00 1.910000e+01
         vertex 1.269231e+01 5.100000e+00 2.010000e+01
      endloop
   endfacet
   facet normal 0.000000e+00 1.000000e+00 0.000000e+00
      outer loop
         vertex 1.269231e+01 5.100000e+00 2.010000e+01
         vertex 7.435897e+00 5.100000e+00 1.910000e+01
         vertex 7.435897e+00 5.100000e+00 2.010000e+01
      endloop
   endfacet
   facet normal 1.000000e+00 0.000000e+00 0.000000e+00
      outer loop
         vertex 7.435897e+00 5.100000e+00 1.910000e+01
         vertex 7.435897e+00 6.125641e+00 1.910000e+01
         vertex 7.435897e+00 5.100000e+00 2.010000e+01
      endloop
   endfacet
   facet normal 1.000000e+00 0.000000e+00 0.000000e+00
      outer loop
         vertex 7.435897e+00 5.100000e+00 2.010000e+01
         vertex 7.435897e+00 6.125641e+00 1.910000e+01
         vertex 7.435897e+00 6.125641e+00 2.010000e+01
      endloop
   endfacet
   facet normal 0.000000e+00 0.000000e+00 1.000000e+00
      outer loop
         vertex 7.435897e+00 6.125641e+00 1.910000e+01
         vertex 7.435897e+00 5.100000e+00 1.910000e+01
         vertex 1.124599e+01 6.125641e+00 1.910000e+01
      endloop
   endfacet
   facet normal 0.000000e+00 0.000000e+00 1.000000e+00
      outer loop
         vertex 1.124599e+01 6.125641e+00 1.910000e+01
         vertex 7.435897e+00 5.100000e+00 1.910000e+01
         vertex 1.269231e+01 5.100000e+00 1.910000e+01
      endloop
   endfacet
   facet normal 0.000000e+00 0.000000e+00 1.000000e+00
      outer loop
         vertex 1.124599e+01 6.125641e+00 1.910000e+01
         vertex 1.269231e+01 5.100000e+00 1.910000e+01
         vertex 7.051282e+00 1.510000e+01 1.910000e+01
      endloop
   endfacet
   facet normal 0.000000e+00 0.000000e+00 1.000000e+00
      outer loop
         vertex 7.051282e+00 1.510000e+01 1.910000e+01
         vertex 1.269231e+01 5.100000e+00 1.910000e+01
         vertex 8.497596e+00 1.407436e+01 1.910000e+01
      endloop
   endfacet
   facet normal 0.000000e+00 0.000000e+00 1.000000e+00
      outer loop
         vertex 7.051282e+00 1.510000e+01 1.910000e+01
         vertex 8.497596e+00 1.407436e+01 1.910000e+01
         vertex 1.256410e+01 1.510000e+01 1.910000e+01
      endloop
   endfacet
   facet normal 0.000000e+00 0.000000e+00 1.000000e+00
      outer loop
         vertex 1.256410e+01 1.510000e+01 1.910000e+01
         vertex 8.497596e+00 1.407436e+01 1.910000e+01
         vertex 1.256410e+01 1.407436e+01 1.910000e+01
      endloop
   endfacet
endsolid